# xmcd
#
# Track frame offsets:
#  165
#  15507
#  29410
#  42570
#  56222
#  70782
#  83697
#  96557
#  109427
#  121527
#  133662
#  146547
#  159535
#  174082
#  186725
#  199165
#
# Disc length: 2817 seconds
#
# Revision: 0
# Processed by: cddbd v1.4PL0 Copyright (c) Steve Scherf et al.
# Submitted via: AltoMP3_Maker 3.0
#
DISCID=e50aff10
DTITLE=Blind Boy Fuller - Bull City Blues
DYEAR=1900
DGENRE=
TTITLE0=Baby you gotta change your mind (1935)
TTITLE1=Big bed blues (1936)
TTITLE2=When your gal packs up and leaves (1936)
TTITLE3=Babe you got to do better (1936)
TTITLE4=Bulldog blues (1937)
TTITLE5=Throw your yas-yas in jail (1937)
TTITLE6=Ain't no getting along (1937)
TTITLE7=New Louise Louise blues (1937)
TTITLE8=Looking for my woman no. 2 (1937)
TTITLE9=I'm a good stem winder (1938)
TTITLE10=It doesn't matter baby (1939)
TTITLE11=Jivin' big Bill blues (1939)
TTITLE12=I don't care how long (1939)
TTITLE13=Blue and worried man (1940)
TTITLE14=Little woman you're so sweet (1940)
TTITLE15=Yo got to have your dollar (1940)
EXTD=
EXTT0=
EXTT1=
EXTT2=
EXTT3=
EXTT4=
EXTT5=
EXTT6=
EXTT7=
EXTT8=
EXTT9=
EXTT10=
EXTT11=
EXTT12=
EXTT13=
EXTT14=
EXTT15=
PLAYORDER=
